Coordinates
version=1
nRows=16
nColumns=36
inDegrees=yes

Units are S.I. units (second, meters, Newtons, ...)
If the header above contains a line with 'inDegrees', this indicates whether rotational values are in degrees (yes) or radians (no).

endheader
time	pelvis_tilt	pelvis_list	pelvis_rotation	pelvis_tx	pelvis_ty	pelvis_tz	hip_flexion_r	hip_adduction_r	hip_rotation_r	knee_angle_r	knee_angle_r_beta	ankle_angle_r	subtalar_angle_r	mtp_angle_r	hip_flexion_l	hip_adduction_l	hip_rotation_l	knee_angle_l	knee_angle_l_beta	ankle_angle_l	subtalar_angle_l	mtp_angle_l	lumbar_extension	lumbar_bending	lumbar_rotation	arm_flex_r	arm_add_r	arm_rot_r	elbow_flex_r	pro_sup_r	arm_flex_l	arm_add_l	arm_rot_l	elbow_flex_l	pro_sup_l
      0.00000000	      0.03103563	      3.07780700	      8.73664300	     -0.35447608	      1.36794889	     -0.04411769	     -2.34419549	     -1.27462683	      1.39445106	      4.30847039	      0.07519699	     13.86790257	     -6.87956566	     -5.91070092	     -1.90928347	      1.88561966	      7.24658870	      2.72935209	      0.04763618	      5.23546133	     -7.22582723	     -5.91070092	    -10.39048700	     -2.57797849	     -3.67426638	    -14.57043524	    -22.77161413	     17.31089815	     77.37577005	     85.30039598	    -16.91911642	    -22.84596627	     15.79772758	     92.07720298	     90.40720197
      0.01666670	     -3.57773321	      2.14945665	      8.27704298	     -0.35224035	      1.35727743	     -0.04347942	      1.39158294	     -0.90273779	      1.77916731	      4.17231589	      0.07282065	     15.11419508	     -5.06859656	     -6.29473070	      1.99651500	      1.57109444	      7.14507406	      2.98311619	      0.05206520	      5.75719455	     -5.58705747	     -6.29473070	     -5.22941993	     -2.15384544	     -3.35163052	    -15.88636780	    -25.01543600	     19.22863228	     78.91516818	     88.62033683	    -19.41651079	    -22.50975994	     15.10502110	     93.21070487	     93.68875742
      0.03333330	     -4.66201619	      2.48594767	      7.73037026	     -0.35180586	      1.35810616	     -0.04141145	      1.85123609	     -1.45818215	      1.76447327	      3.19200394	      0.05571098	     15.16787499	     -4.25214701	     -6.42236286	      2.77910511	      1.80034887	      5.92840839	      2.60552121	      0.04547492	      6.24461884	     -3.93814193	     -6.42236286	     -3.85854167	     -3.06901320	     -2.84576539	    -16.16359949	    -25.11034816	     19.25198296	     79.00970747	     87.77984387	    -20.03077193	    -23.09855213	     14.91774415	     93.65896354	     92.38918484
      0.05000000	     -5.06674700	      2.85095807	      7.33080307	     -0.35177081	      1.35626651	     -0.04016734	      2.00338322	     -1.81837152	      1.71217699	      2.53495101	      0.04424324	     15.29283108	     -3.21992319	     -6.57218610	      2.58968451	      2.10771851	      5.60264555	      1.67920020	      0.02930757	      6.34006161	     -3.12626905	     -6.57218610	     -3.32081001	     -3.73205648	     -2.45214171	    -16.68722988	    -24.90175868	     19.09254432	     78.64809429	     86.84270841	    -20.48598651	    -22.67888835	     13.89072672	     94.31056115	     90.87388630
      0.06666670	     -5.45637466	      2.98903265	      7.12963990	     -0.35191351	      1.35541369	     -0.03935723	      2.32772000	     -1.88200393	      1.81506617	      2.08895838	      0.03645920	     15.35589097	     -2.42075422	     -6.80232418	      2.74988023	      2.25895274	      5.29238805	      1.44541428	      0.02522724	      6.71916020	     -2.45414707	     -6.80232418	     -2.92264255	     -4.06793542	     -3.14129048	    -15.60669651	    -24.97117969	     20.00215712	     78.13687554	     93.66033065	    -22.39157198	    -21.04095581	     10.70518559	     94.89300047	     94.68185005
      0.08333330	     -5.74145092	      3.10073996	      6.97907321	     -0.35225455	      1.35101068	     -0.03885087	      2.55391626	     -1.93934144	      2.06314027	      1.81205328	      0.03162630	     15.30493828	     -1.94072086	     -6.93059754	      2.89573030	      2.40632984	      5.17598515	      1.38635012	      0.02419637	      7.10588949	     -2.26914052	     -6.93059754	     -2.45898461	     -4.17026100	     -2.35810218	    -16.17779093	    -24.94022056	     19.53275266	     78.77428516	     94.72862968	    -22.15241078	    -21.12499815	     11.01473219	     94.78710998	     95.04090857
      0.10000000	     -5.86516591	      3.17332811	      6.82856256	     -0.35227481	      1.35527739	     -0.03833988	      2.51665241	     -1.97149043	      2.19543450	      1.67221321	      0.02918563	     15.22865344	     -1.70189387	     -6.94040693	      2.96905889	      2.49675512	      4.92189993	      1.22262359	      0.02133881	      7.20409834	     -2.21849690	     -6.94040693	     -2.24080916	     -4.22066558	     -1.97843870	    -16.13896091	    -25.00169455	     19.72679240	     78.59748740	     94.80754852	    -22.22029382	    -21.05842696	     10.85958529	     94.22389268	     94.99942202
      0.11666670	     -5.92760895	      3.24165804	      6.68676982	     -0.35212754	      1.35653530	     -0.03827843	      2.41697301	     -2.03690767	      2.13411681	      1.59879206	      0.02790419	     15.23432175	     -1.45647052	     -7.09839499	      2.97646879	      2.60934931	      4.68448553	      1.12864709	      0.01969861	      7.28938305	     -2.21121770	     -7.09839499	     -2.12682639	     -4.24436509	     -1.95056964	    -15.81524106	    -25.16165020	     20.53207772	     78.40638712	     91.76963647	    -22.36630949	    -21.07851155	     10.91719163	     93.73226954	     91.37276950
      0.13333330	     -6.23224400	      3.32644153	      6.56680832	     -0.35242402	      1.35332309	     -0.03796925	      2.75557924	     -2.13892046	      2.36393814	      1.54321543	      0.02693419	     15.27120186	     -1.48933944	     -7.39364611	      3.30606432	      2.73434292	      4.63091409	      1.31031424	      0.02286930	      7.27886044	     -2.52781106	     -7.39364611	     -1.68943500	     -4.42457237	     -1.90947011	    -15.98828012	    -25.04689990	     20.42121311	     78.12908898	     94.63387000	    -22.78782068	    -21.48272115	     10.88586957	     93.35837387	     93.52410522
      0.15000000	     -6.29228675	      3.35356117	      6.48411916	     -0.35251394	      1.34974277	     -0.03787348	      2.72790056	     -2.19501395	      2.35059374	      1.33003367	      0.02321347	     15.27269854	     -1.32279679	     -7.40594880	      3.34055549	      2.75726659	      4.60473547	      1.41161174	      0.02463727	      7.41002804	     -2.50048657	     -7.40594880	     -1.53338973	     -4.47246305	     -1.63181080	    -16.61374241	    -24.96377164	     20.01550438	     78.68129501	     93.52744884	    -23.09164889	    -22.12415323	     11.24163239	     93.52548312	     92.79463969
      0.16666670	     -6.49156307	      3.38257352	      6.44654770	     -0.35237863	      1.35038895	     -0.03774116	      2.99234314	     -2.25469801	      2.32676360	      1.28540128	      0.02243448	     15.27288446	     -1.13706435	     -7.44877364	      3.51691484	      2.81904345	      4.56643102	      1.55951412	      0.02721866	      7.68389663	     -2.36612857	     -7.44877364	     -1.29798578	     -4.59866154	     -1.53397071	    -16.85718626	    -25.25200965	     20.32795806	     78.87992598	     93.68394416	    -23.71489613	    -22.63725250	     11.24918558	     93.66662076	     93.27273111
      0.18333330	     -6.65265218	      3.40958660	      6.36023001	     -0.35188266	      1.35244465	     -0.03775687	      3.14662144	     -2.31674678	      2.43623493	      1.15431219	      0.02014655	     15.25745771	     -1.07715511	     -7.48017159	      3.69812960	      2.85818595	      4.53720821	      1.74267789	      0.03041547	      7.72616369	     -2.36818349	     -7.48017159	     -1.20782809	     -4.60893579	     -1.42298020	    -16.89706385	    -25.32006300	     20.37353217	     79.10327902	     93.42342004	    -24.10919608	    -23.00164813	     11.42337438	     93.47705099	     93.39185956
      0.20000000	     -6.67650633	      3.36513587	      6.13255257	     -0.35233204	      1.35085454	     -0.03761433	      3.14233291	     -2.31538391	      2.24805552	      1.05368484	      0.01839027	     15.18325019	     -0.97183523	     -7.49163550	      3.61299324	      2.78988577	      4.38088883	      1.59968759	      0.02791982	      7.80637822	     -2.20133950	     -7.49163550	     -1.24015967	     -4.50841412	     -1.56197562	    -16.41777856	    -25.53373686	     20.89786305	     79.09818693	     92.95151340	    -24.37063284	    -23.01493006	     11.04724068	     93.03147439	     93.02411979
      0.21666670	     -6.67684192	      3.27801856	      5.92730392	     -0.35207441	      1.35306902	     -0.03755647	      3.12443918	     -2.25358690	      2.07199112	      1.04054531	      0.01816094	     15.08084213	     -1.09022768	     -7.49605894	      3.53313030	      2.67941262	      4.25988953	      1.51625473	      0.02646364	      7.85856781	     -2.13946337	     -7.49605894	     -1.27730289	     -4.37923125	     -1.48431961	    -16.39701739	    -25.75705558	     21.09258780	     79.06287951	     92.49732392	    -24.33814607	    -22.99078534	     10.98219776	     92.41279143	     92.89852633
      0.23333330	     -6.70384009	      3.23077348	      5.78427159	     -0.35233412	      1.35449173	     -0.03738862	      3.14050173	     -2.23528315	      1.75634218	      0.93671050	      0.01634868	     14.95164867	     -1.03849834	     -7.49786890	      3.50728754	      2.60884143	      4.23304940	      1.42130175	      0.02480640	      7.77865313	     -2.14392941	     -7.49786890	     -1.25849186	     -4.32045094	     -1.46328441	    -16.00099229	    -25.82610349	     21.51634743	     78.79161715	     92.22958470	    -24.57448718	    -22.86714307	     11.02828125	     91.50431496	     92.47656092
      0.25000000	     -6.56908010	      3.14050036	      5.52121581	     -0.35255865	      1.35064628	     -0.03742667	      2.95552211	     -2.20279304	      1.39027736	      0.99271073	      0.01732607	     14.76831602	     -1.29491450	     -7.49790585	      3.35853464	      2.47210545	      3.90266896	      1.32379438	      0.02310457	      7.85531790	     -1.71949596	     -7.49790585	     -1.38927682	     -4.18957270	     -1.11253046	    -15.93231912	    -25.95741019	     21.52549650	     78.89613532	     91.28815450	    -24.64655835	    -22.97837420	     11.08529283	     91.34711431	     91.56016254
